<?xml version="1.0" encoding="UTF-8" standalone="no"?>
<!-- Generator: Adobe Illustrator 19.0.0, SVG Export Plug-In . SVG Version: 6.00 Build 0)  -->

<svg
   xmlns:dc="http://purl.org/dc/elements/1.1/"
   xmlns:cc="http://creativecommons.org/ns#"
   xmlns:rdf="http://www.w3.org/1999/02/22-rdf-syntax-ns#"
   xmlns:svg="http://www.w3.org/2000/svg"
   xmlns="http://www.w3.org/2000/svg"
   xmlns:sodipodi="http://sodipodi.sourceforge.net/DTD/sodipodi-0.dtd"
   xmlns:inkscape="http://www.inkscape.org/namespaces/inkscape"
   version="1.1"
   id="Layer_1"
   x="0px"
   y="0px"
   viewBox="0 0 297 297"
   xml:space="preserve"
   sodipodi:docname="chicken_launcher.svg"
   inkscape:version="0.92.0 r15299"
   inkscape:export-filename="C:\Users\Courts\AndroidStudioProjects\EatingWindow\app\src\main\res\mipmap-xxxhdpi\ic_launcher.png"
   inkscape:export-xdpi="62.060608"
   inkscape:export-ydpi="62.060608"
   style="enable-background:new 0 0 297 297;"><metadata
     id="metadata91"><rdf:RDF><cc:Work
         rdf:about=""><dc:format>image/svg+xml</dc:format><dc:type
           rdf:resource="http://purl.org/dc/dcmitype/StillImage" /><dc:title></dc:title></cc:Work></rdf:RDF></metadata><defs
     id="defs89" /><sodipodi:namedview
     pagecolor="#ffffff"
     bordercolor="#666666"
     borderopacity="1"
     objecttolerance="10"
     gridtolerance="10"
     guidetolerance="10"
     inkscape:pageopacity="0"
     inkscape:pageshadow="2"
     inkscape:window-width="1920"
     inkscape:window-height="1017"
     id="namedview87"
     showgrid="false"
     inkscape:zoom="1.5892256"
     inkscape:cx="-128.24078"
     inkscape:cy="154.93028"
     inkscape:window-x="-8"
     inkscape:window-y="-8"
     inkscape:window-maximized="1"
     inkscape:current-layer="Layer_1" /><rect
     style="opacity:1;fill:#e67e22;fill-opacity:1;stroke:none;stroke-width:3.77952766;stroke-linecap:round;stroke-linejoin:bevel;stroke-miterlimit:4;stroke-dasharray:none;stroke-dashoffset:0;stroke-opacity:1;paint-order:stroke fill markers"
     id="rect4556"
     width="236.48856"
     height="235.52232"
     x="30.308075"
     y="30.645054"
     ry="18.247881" /><rect
     ry="9.2287111"
     y="147.05397"
     x="106.23114"
     height="119.11343"
     width="160.56549"
     id="rect4573"
     style="opacity:1;fill:#ad481c;fill-opacity:1;stroke:none;stroke-width:2.21474051;stroke-linecap:round;stroke-linejoin:bevel;stroke-miterlimit:4;stroke-dasharray:none;stroke-dashoffset:0;stroke-opacity:1;paint-order:stroke fill markers" /><g
     id="g54"><path
       style="fill:#ad481c"
       d="m 225.6366,110.7236 -177.410999,97.16 58.752709,58.74282 49.28844,-0.0682 c 44.54607,-0.0616 110.383,-14.73836 110.42766,-51.11796 l 0.0781,-63.58084 z"
       id="path8"
       inkscape:connector-curvature="0"
       sodipodi:nodetypes="cccsscc" /><g
       id="g12"><path
         style="fill:#682421;"
         d="M65.503,159.1c0,37.305,54.598,48.247,108.557,48.247s65.134-20.592,65.134-57.897    s-22.031-57.897-75.99-57.897S65.503,121.795,65.503,159.1z"
         id="path10" /></g><g
       id="g16"><path
         style="fill:#F0DEB4;"
         d="M52.533,92.896l21.814,15.902l5.301-7.272L57.834,85.624c2.928-4.016,2.046-9.645-1.97-12.573    c-4.016-2.927-9.645-2.045-12.573,1.971c-0.967,1.326-1.51,2.828-1.67,4.351c-1.4,0.618-2.665,1.595-3.631,2.921    c-2.928,4.016-2.046,9.645,1.97,12.573S49.605,96.913,52.533,92.896z"
         id="path14" /></g><g
       id="g20"><path
         style="fill:#5B1D1D;"
         d="M163.204,91.554c-4.536,0-8.998,0.219-13.37,0.632v114.362c7.964,0.549,16.102,0.799,24.226,0.799    c53.959,0,65.134-20.592,65.134-57.897S217.163,91.554,163.204,91.554z"
         id="path18" /></g><g
       id="g24"><path
         style="fill:#823733;"
         d="M129.258,109.85c12.048,8.782,8.166,20.434-0.618,32.483c-8.784,12.049-19.143,19.931-31.19,11.149    c-12.048-8.782-36.508-41.571-27.724-53.62S117.211,101.067,129.258,109.85z"
         id="path22" /></g><g
       id="g28"><path
         style="fill:#C0392B;"
         d="M197.087,179.644c0-10.659,10.211-16.375,22.808-16.375c12.596,0,22.808,5.716,22.808,16.375    s-10.211,19.299-22.808,19.299S197.087,190.303,197.087,179.644z"
         id="path26" /></g><g
       id="g32"><path
         style="fill:#C0392B;"
         d="M65.503,179.644c0-10.659,10.211-16.375,22.808-16.375s22.808,5.716,22.808,16.375    s-10.211,19.299-22.808,19.299S65.503,190.303,65.503,179.644z"
         id="path30" /></g><g
       id="g36"><circle
         style="fill:#6AAC4B;"
         cx="187.73"
         cy="186.077"
         r="5.263"
         id="circle34" /></g><g
       id="g40"><circle
         style="fill:#6AAC4B;"
         cx="167.261"
         cy="186.077"
         r="5.263"
         id="circle38" /></g><g
       id="g44"><circle
         style="fill:#59913C;"
         cx="176.033"
         cy="186.077"
         r="5.263"
         id="circle42" /></g><g
       id="g48"><path
         style="fill:#F0DEB4;"
         d="M54.684,210.347h192.405c5.329,0,9.649-4.32,9.649-9.649l0,0c0-5.329-4.32-9.649-9.649-9.649    H54.684c-5.329,0-9.649,4.32-9.649,9.649l0,0C45.034,206.027,49.355,210.347,54.684,210.347z"
         id="path46" /></g><g
       id="g52"><path
         style="fill:#D6C299;"
         d="M247.089,191.048h-97.255v19.299h97.255c5.329,0,9.65-4.32,9.65-9.649l0,0    C256.738,195.368,252.418,191.048,247.089,191.048z"
         id="path50" /></g></g><g
     id="g56" /><g
     id="g58" /><g
     id="g60" /><g
     id="g62" /><g
     id="g64" /><g
     id="g66" /><g
     id="g68" /><g
     id="g70" /><g
     id="g72" /><g
     id="g74" /><g
     id="g76" /><g
     id="g78" /><g
     id="g80" /><g
     id="g82" /><g
     id="g84" /></svg>