<?xml version="1.0" encoding="UTF-8" standalone="no"?>
<!-- Generator: Adobe Illustrator 19.0.0, SVG Export Plug-In . SVG Version: 6.00 Build 0)  -->

<svg
   xmlns:dc="http://purl.org/dc/elements/1.1/"
   xmlns:cc="http://creativecommons.org/ns#"
   xmlns:rdf="http://www.w3.org/1999/02/22-rdf-syntax-ns#"
   xmlns:svg="http://www.w3.org/2000/svg"
   xmlns="http://www.w3.org/2000/svg"
   xmlns:sodipodi="http://sodipodi.sourceforge.net/DTD/sodipodi-0.dtd"
   xmlns:inkscape="http://www.inkscape.org/namespaces/inkscape"
   version="1.1"
   id="Layer_1"
   x="0px"
   y="0px"
   viewBox="0 0 297 297"
   xml:space="preserve"
   sodipodi:docname="chicken_ic_launcher_round.svg"
   inkscape:version="0.92.0 r15299"
   inkscape:export-filename="C:\Users\Courts\AndroidStudioProjects\EatingWindow\app\src\main\res\mipmap-mdpi\ic_launcher_round.png"
   inkscape:export-xdpi="15.515152"
   inkscape:export-ydpi="15.515152"
   style="enable-background:new 0 0 297 297;"><metadata
     id="metadata91"><rdf:RDF><cc:Work
         rdf:about=""><dc:format>image/svg+xml</dc:format><dc:type
           rdf:resource="http://purl.org/dc/dcmitype/StillImage" /><dc:title></dc:title></cc:Work></rdf:RDF></metadata><defs
     id="defs89" /><sodipodi:namedview
     pagecolor="#ffffff"
     bordercolor="#666666"
     borderopacity="1"
     objecttolerance="10"
     gridtolerance="10"
     guidetolerance="10"
     inkscape:pageopacity="0"
     inkscape:pageshadow="2"
     inkscape:window-width="1920"
     inkscape:window-height="1017"
     id="namedview87"
     showgrid="false"
     inkscape:zoom="3.1784512"
     inkscape:cx="110.75555"
     inkscape:cy="163.20002"
     inkscape:window-x="-8"
     inkscape:window-y="-8"
     inkscape:window-maximized="1"
     inkscape:current-layer="Layer_1" /><g
     id="g54"
     transform="matrix(0.91414141,0,0,0.91414141,12.5,13.000001)"><g
       id="g6"><g
         id="g4"><circle
           style="fill:#e67e22"
           cx="148.5"
           cy="148.5"
           r="148.5"
           id="circle2" /></g></g><path
       style="fill:#ad481c"
       d="m 225.204,110.291 -177.411,97.16 89.116,89.101 c 3.825,0.295 7.691,0.448 11.592,0.448 71.575,0 131.318,-50.64 145.368,-118.044 z"
       id="path8"
       inkscape:connector-curvature="0" /><g
       id="g12"><path
         style="fill:#682421"
         d="m 65.503,159.1 c 0,37.305 54.598,48.247 108.557,48.247 53.959,0 65.134,-20.592 65.134,-57.897 0,-37.305 -22.031,-57.897 -75.99,-57.897 -53.959,0 -97.701,30.242 -97.701,67.547 z"
         id="path10"
         inkscape:connector-curvature="0" /></g><g
       id="g16"><path
         style="fill:#f0deb4"
         d="m 52.533,92.896 21.814,15.902 5.301,-7.272 -21.814,-15.902 c 2.928,-4.016 2.046,-9.645 -1.97,-12.573 -4.016,-2.927 -9.645,-2.045 -12.573,1.971 -0.967,1.326 -1.51,2.828 -1.67,4.351 -1.4,0.618 -2.665,1.595 -3.631,2.921 -2.928,4.016 -2.046,9.645 1.97,12.573 4.016,2.928 9.645,2.046 12.573,-1.971 z"
         id="path14"
         inkscape:connector-curvature="0" /></g><g
       id="g20"><path
         style="fill:#5b1d1d"
         d="m 163.204,91.554 c -4.536,0 -8.998,0.219 -13.37,0.632 v 114.362 c 7.964,0.549 16.102,0.799 24.226,0.799 53.959,0 65.134,-20.592 65.134,-57.897 0,-37.305 -22.031,-57.896 -75.99,-57.896 z"
         id="path18"
         inkscape:connector-curvature="0" /></g><g
       id="g24"><path
         style="fill:#823733"
         d="m 129.258,109.85 c 12.048,8.782 8.166,20.434 -0.618,32.483 -8.784,12.049 -19.143,19.931 -31.19,11.149 -12.048,-8.782 -36.508,-41.571 -27.724,-53.62 8.784,-12.049 47.485,1.205 59.532,9.988 z"
         id="path22"
         inkscape:connector-curvature="0" /></g><g
       id="g28"><path
         style="fill:#c0392b"
         d="m 197.087,179.644 c 0,-10.659 10.211,-16.375 22.808,-16.375 12.596,0 22.808,5.716 22.808,16.375 0,10.659 -10.211,19.299 -22.808,19.299 -12.597,0 -22.808,-8.64 -22.808,-19.299 z"
         id="path26"
         inkscape:connector-curvature="0" /></g><g
       id="g32"><path
         style="fill:#c0392b"
         d="m 65.503,179.644 c 0,-10.659 10.211,-16.375 22.808,-16.375 12.597,0 22.808,5.716 22.808,16.375 0,10.659 -10.211,19.299 -22.808,19.299 -12.597,0 -22.808,-8.64 -22.808,-19.299 z"
         id="path30"
         inkscape:connector-curvature="0" /></g><g
       id="g36"><circle
         style="fill:#6aac4b"
         cx="187.73"
         cy="186.077"
         r="5.263"
         id="circle34" /></g><g
       id="g40"><circle
         style="fill:#6aac4b"
         cx="167.261"
         cy="186.077"
         r="5.263"
         id="circle38" /></g><g
       id="g44"><circle
         style="fill:#59913c"
         cx="176.033"
         cy="186.077"
         r="5.263"
         id="circle42" /></g><g
       id="g48"><path
         style="fill:#f0deb4"
         d="m 54.684,210.347 h 192.405 c 5.329,0 9.649,-4.32 9.649,-9.649 v 0 c 0,-5.329 -4.32,-9.649 -9.649,-9.649 H 54.684 c -5.329,0 -9.649,4.32 -9.649,9.649 v 0 c -10e-4,5.329 4.32,9.649 9.649,9.649 z"
         id="path46"
         inkscape:connector-curvature="0" /></g><g
       id="g52"><path
         style="fill:#d6c299"
         d="m 247.089,191.048 h -97.255 v 19.299 h 97.255 c 5.329,0 9.65,-4.32 9.65,-9.649 v 0 c -10e-4,-5.33 -4.321,-9.65 -9.65,-9.65 z"
         id="path50"
         inkscape:connector-curvature="0" /></g></g><g
     id="g56" /><g
     id="g58" /><g
     id="g60" /><g
     id="g62" /><g
     id="g64" /><g
     id="g66" /><g
     id="g68" /><g
     id="g70" /><g
     id="g72" /><g
     id="g74" /><g
     id="g76" /><g
     id="g78" /><g
     id="g80" /><g
     id="g82" /><g
     id="g84" /><path
     style="fill:#000000;stroke-width:1.54838705"
     d=""
     id="path4537"
     inkscape:connector-curvature="0" /></svg>